<svg id="66548727-b51f-4541-9d82-08f3563a3988" data-name="ba218384-e1a3-4046-bca2-3cc08d5bd235" xmlns="http://www.w3.org/2000/svg" xmlns:xlink="http://www.w3.org/1999/xlink" viewBox="0 0 472.08 137.09"><defs><style>.\35 05977c4-9e6e-4dd1-b88c-1352c9d49c1d{fill:#fff;}.\36 0a636d2-1f6c-46b8-a0bb-fba98590d11c{clip-path:url(#bbbe9d22-8bfd-452c-b575-cbb460f0116d);}.\38 3649957-91f2-4982-a1ce-a82d94972059{fill:#f9bc15;}.\32 2769a79-9b8f-4251-ba5f-f3626fbe3dc5,.\33 f28d322-d63c-4f15-be87-d3c5869b1dd9,.\35 fc78719-9093-436a-b4c0-c76468aed04d,.\38 3649957-91f2-4982-a1ce-a82d94972059,.b3f417c0-5f2d-45a4-ac8f-873d79164abb,.c5501c20-e977-4982-ba71-bb7c5c18e326{fill-rule:evenodd;}.c5501c20-e977-4982-ba71-bb7c5c18e326{fill:#d23d2f;}.\35 fc78719-9093-436a-b4c0-c76468aed04d{fill:#557dbf;}.b3f417c0-5f2d-45a4-ac8f-873d79164abb{fill:#34a850;}.\33 f28d322-d63c-4f15-be87-d3c5869b1dd9{fill:#36a852;}.\32 2769a79-9b8f-4251-ba5f-f3626fbe3dc5{fill:#34a851;}</style><clipPath id="bbbe9d22-8bfd-452c-b575-cbb460f0116d" transform="translate(-1.67 0)"><path class="505977c4-9e6e-4dd1-b88c-1352c9d49c1d" d="M405.43,39,398,56.34l-3.39,8.58-3.46-8.53L384.33,39h-3.16L393,68.08l-5.42,12.64h3.1L408.57,39ZM204.07,68.44h7.26V38.93h-7.27Zm46.69,0H258V38.93h-7.27Zm196-14.73c0,9.3,6.85,15,15.13,15a15,15,0,0,0,10.72-4.41l-2-2a12.46,12.46,0,0,1-8.76,3.64c-6.67,0-12.27-4.35-12.27-12.28s5.6-12.28,12.27-12.28a12.46,12.46,0,0,1,8.82,3.52l1.9-1.85a15.29,15.29,0,0,0-10.72-4.41c-8.52,0-15.13,5.72-15.13,15m-29.66-9.48V39H414.2V68.44h2.92V52c0-6.08,4.23-10.67,10.3-10.73,6.37-.06,10.48,3.52,10.48,10.19V68.44h2.92v-17c0-8.17-5.42-13-13.28-13-4.11.06-8.22,1.73-10.48,5.78M294,53.72c0-5.6,3.87-8.88,8.7-8.88,11.43,0,11.43,17.82,0,17.82-4.82,0-8.7-3.34-8.7-8.94m-7.27,0c0,10.31,6.43,15.68,15.13,15.62,3.27-.06,7.86-1.73,9.53-5.19l.36,4.29h6.85V39h-7l-.24,4c-1.67-2.92-5.42-4.77-9.35-4.77h-.14c-8.51,0-15.16,5.3-15.16,15.38M223.58,53c0-5.13,3.45-8.29,7.68-8.29s7.62,3.22,7.62,8.29-3.45,8.17-7.62,8.17-7.68-3-7.68-8.17M238,39.75a11.69,11.69,0,0,0-6.66-1.65c-8.22,0-14.89,5.72-14.89,14.9s5.67,14.78,14.89,14.78c3.63,0,7.44,1.85,7.44,5.9S235.5,80,231.33,80s-7.68-2.5-7.68-6.32h-7.21c0,7.93,6.37,13.12,14.89,13.12S246,81.8,246,73.68c0-3.76-1.19-7.27-6.07-9.72,4.82-2.21,6.19-7.33,6.19-11a12.54,12.54,0,0,0-3.1-8.7l3.27-4.14L241,36.06Zm29.56-8.2v7.57h-5.48v6.26h5.48v12.7c0,7.33,4.17,11,10.54,10.73a16.21,16.21,0,0,0,6-1.25l-2-6.2a8.28,8.28,0,0,1-3.51.89c-2.26,0-3.81-1.37-3.81-4.17V45.37h8.16V39.11h-8.1V30.76Zm57.18,36.9h7.21V26.77h-7.21ZM170,34.16h8.58c9,0,12.86,6.5,13,13,.18,6.8-3.57,13.71-13,13.71H170Zm-7.8-7.45V68.44h16.38c14.59,0,21-10.67,20.85-21.22-.18-10.31-6.55-20.51-20.85-20.51Zm193.92,0V68.44H382.8v-3H359.33V26.71Zm-152.7,4.06c0,5.66,8.58,5.66,8.58,0a4.29,4.29,0,0,0-8.58,0m46.69,0c0,5.66,8.58,5.66,8.58,0a4.29,4.29,0,0,0-8.58,0"/></clipPath></defs><title>dl logo_white</title><path class="505977c4-9e6e-4dd1-b88c-1352c9d49c1d" d="M405.43,39,398,56.34l-3.39,8.58-3.46-8.53L384.33,39h-3.16L393,68.08l-5.42,12.64h3.1L408.57,39ZM204.07,68.44h7.26V38.93h-7.27Zm46.69,0H258V38.93h-7.27Zm196-14.73c0,9.3,6.85,15,15.13,15a15,15,0,0,0,10.72-4.41l-2-2a12.46,12.46,0,0,1-8.76,3.64c-6.67,0-12.27-4.35-12.27-12.28s5.6-12.28,12.27-12.28a12.46,12.46,0,0,1,8.82,3.52l1.9-1.85a15.29,15.29,0,0,0-10.72-4.41c-8.52,0-15.13,5.72-15.13,15m-29.66-9.48V39H414.2V68.44h2.92V52c0-6.08,4.23-10.67,10.3-10.73,6.37-.06,10.48,3.52,10.48,10.19V68.44h2.92v-17c0-8.17-5.42-13-13.28-13-4.11.06-8.22,1.73-10.48,5.78M294,53.72c0-5.6,3.87-8.88,8.7-8.88,11.43,0,11.43,17.82,0,17.82-4.82,0-8.7-3.34-8.7-8.94m-7.27,0c0,10.31,6.43,15.68,15.13,15.62,3.27-.06,7.86-1.73,9.53-5.19l.36,4.29h6.85V39h-7l-.24,4c-1.67-2.92-5.42-4.77-9.35-4.77h-.14c-8.51,0-15.16,5.3-15.16,15.38M223.58,53c0-5.13,3.45-8.29,7.68-8.29s7.62,3.22,7.62,8.29-3.45,8.17-7.62,8.17-7.68-3-7.68-8.17M238,39.75a11.69,11.69,0,0,0-6.66-1.65c-8.22,0-14.89,5.72-14.89,14.9s5.67,14.78,14.89,14.78c3.63,0,7.44,1.85,7.44,5.9S235.5,80,231.33,80s-7.68-2.5-7.68-6.32h-7.21c0,7.93,6.37,13.12,14.89,13.12S246,81.8,246,73.68c0-3.76-1.19-7.27-6.07-9.72,4.82-2.21,6.19-7.33,6.19-11a12.54,12.54,0,0,0-3.1-8.7l3.27-4.14L241,36.06Zm29.56-8.2v7.57h-5.48v6.26h5.48v12.7c0,7.33,4.17,11,10.54,10.73a16.21,16.21,0,0,0,6-1.25l-2-6.2a8.28,8.28,0,0,1-3.51.89c-2.26,0-3.81-1.37-3.81-4.17V45.37h8.16V39.11h-8.1V30.76Zm57.18,36.9h7.21V26.77h-7.21ZM170,34.16h8.58c9,0,12.86,6.5,13,13,.18,6.8-3.57,13.71-13,13.71H170Zm-7.8-7.45V68.44h16.38c14.59,0,21-10.67,20.85-21.22-.18-10.31-6.55-20.51-20.85-20.51Zm193.92,0V68.44H382.8v-3H359.33V26.71Zm-152.7,4.06c0,5.66,8.58,5.66,8.58,0a4.29,4.29,0,0,0-8.58,0m46.69,0c0,5.66,8.58,5.66,8.58,0a4.29,4.29,0,0,0-8.58,0" transform="translate(-1.67 0)"/><g class="60a636d2-1f6c-46b8-a0bb-fba98590d11c"><rect class="505977c4-9e6e-4dd1-b88c-1352c9d49c1d" x="159.38" y="25.37" width="312.7" height="62.57"/></g><rect class="505977c4-9e6e-4dd1-b88c-1352c9d49c1d" x="158.22" y="100" width="1.93" height="10.34"/><polygon class="505977c4-9e6e-4dd1-b88c-1352c9d49c1d" points="169.14 99.99 171.09 99.99 171.09 110.34 169.88 110.34 169.88 110.36 164.45 103.37 164.45 110.34 162.5 110.34 162.5 100 164.08 100 169.14 106.41 169.14 99.99"/><polygon class="505977c4-9e6e-4dd1-b88c-1352c9d49c1d" points="180.04 99.99 181.99 99.99 181.99 110.34 180.78 110.34 180.78 110.36 175.34 103.37 175.34 110.34 173.39 110.34 173.39 100 174.98 100 180.04 106.41 180.04 99.99"/><path class="505977c4-9e6e-4dd1-b88c-1352c9d49c1d" d="M196.13,105.24a5.31,5.31,0,0,1-10.62,0h0a5.31,5.31,0,0,1,10.62,0h0m-8.7,0a3.39,3.39,0,1,0,6.78,0h0a3.4,3.4,0,1,0-6.78,0" transform="translate(-1.67 0)"/><polygon class="505977c4-9e6e-4dd1-b88c-1352c9d49c1d" points="201.39 110.39 199.37 110.39 195.07 100 197.25 100 200.37 108.05 203.5 100 205.69 100 201.39 110.39"/><path class="505977c4-9e6e-4dd1-b88c-1352c9d49c1d" d="M216.26,108.4h-5.41l-.89,2h-2.11l4.64-10.34h2.13l4.64,10.34h-2.13Zm-2.7-6.22-1.92,4.4h3.84Z" transform="translate(-1.67 0)"/><polygon class="505977c4-9e6e-4dd1-b88c-1352c9d49c1d" points="219.81 101.78 216.53 101.78 216.53 100 225.04 100 225.04 101.78 221.76 101.78 221.76 110.34 219.81 110.34 219.81 101.78"/><rect class="505977c4-9e6e-4dd1-b88c-1352c9d49c1d" x="226.6" y="100" width="1.93" height="10.34"/><path class="505977c4-9e6e-4dd1-b88c-1352c9d49c1d" d="M242.88,105.24a5.31,5.31,0,0,1-10.62,0h0a5.31,5.31,0,0,1,10.62,0h0m-8.7,0a3.39,3.39,0,1,0,6.78,0h0a3.4,3.4,0,1,0-6.78,0" transform="translate(-1.67 0)"/><polygon class="505977c4-9e6e-4dd1-b88c-1352c9d49c1d" points="249.8 99.99 251.75 99.99 251.75 110.34 250.54 110.34 250.54 110.36 245.1 103.37 245.1 110.34 243.15 110.34 243.15 100 244.73 100 249.8 106.41 249.8 99.99"/><polygon class="505977c4-9e6e-4dd1-b88c-1352c9d49c1d" points="278.45 110.34 270.71 110.34 270.71 100 278.45 100 278.45 101.89 272.65 101.89 272.65 104.27 278.25 104.27 278.25 106.09 272.65 106.09 272.65 108.42 278.45 108.42 278.45 110.34"/><path class="505977c4-9e6e-4dd1-b88c-1352c9d49c1d" d="M291.1,105.09a4.9,4.9,0,0,1-5.17,5.26h-4.06V100h4.06a4.88,4.88,0,0,1,5.17,5.08m-7.3,3.38h2.13a3.31,3.31,0,0,0,0-6.62H283.8Z" transform="translate(-1.67 0)"/><path class="505977c4-9e6e-4dd1-b88c-1352c9d49c1d" d="M301.82,100v5.92c0,3.06-1.88,4.62-4.48,4.62a4.31,4.31,0,0,1-4.59-4.62V100h1.93v5.92a2.54,2.54,0,0,0,2.67,2.85c1.61,0,2.53-1.08,2.53-2.85V100Z" transform="translate(-1.67 0)"/><path class="505977c4-9e6e-4dd1-b88c-1352c9d49c1d" d="M313.2,109.05a5.45,5.45,0,0,1-3.93,1.54,5.08,5.08,0,0,1-5.48-5.33,5.2,5.2,0,0,1,4.94-5.45h.54a5.33,5.33,0,0,1,3.8,1.58l-1.3,1.26a3.55,3.55,0,0,0-2.5-1,3.39,3.39,0,0,0-3.56,3.59,3.31,3.31,0,0,0,3.56,3.5,3.8,3.8,0,0,0,2.6-1Z" transform="translate(-1.67 0)"/><path class="505977c4-9e6e-4dd1-b88c-1352c9d49c1d" d="M321.54,108.4h-5.41l-.89,2h-2.11l4.64-10.34h2.13l4.64,10.34h-2.13Zm-2.7-6.22-1.92,4.4h3.84Z" transform="translate(-1.67 0)"/><polygon class="505977c4-9e6e-4dd1-b88c-1352c9d49c1d" points="325.09 101.78 321.81 101.78 321.81 100 330.32 100 330.32 101.78 327.04 101.78 327.04 110.34 325.09 110.34 325.09 101.78"/><rect class="505977c4-9e6e-4dd1-b88c-1352c9d49c1d" x="331.88" y="100" width="1.94" height="10.34"/><path class="505977c4-9e6e-4dd1-b88c-1352c9d49c1d" d="M348.16,105.24a5.31,5.31,0,0,1-10.62,0h0a5.31,5.31,0,0,1,10.62,0h0m-8.7,0a3.39,3.39,0,1,0,6.78,0h0a3.4,3.4,0,1,0-6.78,0" transform="translate(-1.67 0)"/><polygon class="505977c4-9e6e-4dd1-b88c-1352c9d49c1d" points="355.08 99.99 357.03 99.99 357.03 110.34 355.82 110.34 355.82 110.36 350.38 103.37 350.38 110.34 348.43 110.34 348.43 100 350.01 100 355.08 106.41 355.08 99.99"/><rect class="505977c4-9e6e-4dd1-b88c-1352c9d49c1d" x="376.88" y="100" width="1.93" height="10.34"/><polygon class="505977c4-9e6e-4dd1-b88c-1352c9d49c1d" points="387.81 99.99 389.76 99.99 389.76 110.34 388.55 110.34 388.55 110.36 383.12 103.37 383.12 110.34 381.17 110.34 381.17 100 382.75 100 387.81 106.41 387.81 99.99"/><path class="505977c4-9e6e-4dd1-b88c-1352c9d49c1d" d="M402.7,109.05a5.45,5.45,0,0,1-3.93,1.54,5.08,5.08,0,0,1-5.44-5.34,5.2,5.2,0,0,1,4.94-5.45h.54a5.33,5.33,0,0,1,3.8,1.58l-1.3,1.26a3.55,3.55,0,0,0-2.5-1,3.39,3.39,0,0,0-3.56,3.59,3.31,3.31,0,0,0,3.56,3.5,3.81,3.81,0,0,0,2.6-1Z" transform="translate(-1.67 0)"/><path class="505977c4-9e6e-4dd1-b88c-1352c9d49c1d" d="M413.08,100v5.92c0,3.06-1.88,4.62-4.48,4.62a4.31,4.31,0,0,1-4.59-4.62V100h1.93v5.92a2.54,2.54,0,0,0,2.67,2.85c1.61,0,2.53-1.08,2.53-2.85V100Z" transform="translate(-1.67 0)"/><path class="505977c4-9e6e-4dd1-b88c-1352c9d49c1d" d="M423.75,103a2.1,2.1,0,0,1-1.34,2,2.52,2.52,0,0,1,1.65,2.3c0,2.31-1.73,3-3.87,3h-4.86V100h4.9c2,0,3.56.92,3.56,3m-6.54,1.15h3c1.23,0,1.63-.52,1.63-1.11s-.38-1.27-1.62-1.27h-3Zm0,4.37h3c.8,0,1.93-.27,1.93-1.24s-1.14-1.42-1.93-1.42h-3Z" transform="translate(-1.67 0)"/><path class="505977c4-9e6e-4dd1-b88c-1352c9d49c1d" d="M433.14,108.4h-5.41l-.89,2h-2.11l4.6-10.39h2.13l4.64,10.34H434Zm-2.7-6.22-1.92,4.4h3.81Z" transform="translate(-1.67 0)"/><polygon class="505977c4-9e6e-4dd1-b88c-1352c9d49c1d" points="436.69 101.78 433.41 101.78 433.41 100 441.92 100 441.92 101.78 438.64 101.78 438.64 110.34 436.69 110.34 436.69 101.78"/><rect class="505977c4-9e6e-4dd1-b88c-1352c9d49c1d" x="443.48" y="100" width="1.93" height="10.34"/><path class="505977c4-9e6e-4dd1-b88c-1352c9d49c1d" d="M459.76,105.24a5.31,5.31,0,0,1-10.62,0h0a5.31,5.31,0,0,1,10.62,0h0m-8.7,0a3.4,3.4,0,1,0,0-.52,3.39,3.39,0,0,0,0,.52" transform="translate(-1.67 0)"/><polygon class="505977c4-9e6e-4dd1-b88c-1352c9d49c1d" points="466.68 99.99 468.63 99.99 468.63 110.34 467.42 110.34 467.42 110.36 461.98 103.37 461.98 110.34 460.03 110.34 460.03 100 461.61 100 466.68 106.41 466.68 99.99"/><rect class="505977c4-9e6e-4dd1-b88c-1352c9d49c1d" x="258.84" y="105.53" width="5.38" height="1.63"/><rect class="505977c4-9e6e-4dd1-b88c-1352c9d49c1d" x="363.44" y="105.53" width="5.38" height="1.63"/><path class="83649957-91f2-4982-a1ce-a82d94972059" d="M70.23,128.78a59.94,59.94,0,0,1-39.65-14.92l5.1-5.1h0l6-6a44.31,44.31,0,0,1-9.93-55.72L25.59,41a52.71,52.71,0,0,0,4.49,62.15L25,108.24l0,0L19,114.09a68.48,68.48,0,0,0,90.47,10.61l-6-6a59.9,59.9,0,0,1-33.3,10.05" transform="translate(-1.67 0)"/><path class="c5501c20-e977-4982-ba71-bb7c5c18e326" d="M126.61,29.51l-6,6a60.17,60.17,0,0,1-4.82,72.68L110.68,103h0l-6-6a44.31,44.31,0,0,1-56.26,10.44l-6.13,6.13A52.7,52.7,0,0,0,105,108.8l5.1,5.1h0L116,119.8a68.48,68.48,0,0,0,10.63-90.29" transform="translate(-1.67 0)"/><path class="5fc78719-9093-436a-b4c0-c76468aed04d" d="M97.8,24.06a52.71,52.71,0,0,0-61.67,4.63l-5.5-5.5h0l-5.89-5.89A68.49,68.49,0,0,0,14,107.77l6-6A60.18,60.18,0,0,1,24.8,29l2.51,2.51,0,0,8.93,8.93A44.3,44.3,0,0,1,91.66,30.21Z" transform="translate(-1.67 0)"/><path class="b3f417c0-5f2d-45a4-ac8f-873d79164abb" d="M110.05,34.29l5.47-5.47,0,0L121.43,23l0,0,0,0-.44-.44q-2.24-2.46-4.7-4.7l-.44-.45,0,0A68.48,68.48,0,0,0,31.4,12.1l6,6a60.17,60.17,0,0,1,72.55,5.15l-5.5,5.5h0l-6,6a44.31,44.31,0,0,1,10.64,55.47l6.15,6.15a52.72,52.72,0,0,0-5.21-62" transform="translate(-1.67 0)"/><path class="c5501c20-e977-4982-ba71-bb7c5c18e326" d="M65.7,103.59a63.58,63.58,0,0,1-6.5-8.17,4.44,4.44,0,0,1-1.39.65c-.83,3.51-1.26,5.63-1.44,5.58a35.8,35.8,0,0,0,9.51,2.53Z" transform="translate(-1.67 0)"/><path class="5fc78719-9093-436a-b4c0-c76468aed04d" d="M52.22,92.59a35.66,35.66,0,0,1-10.77-2.65,36.22,36.22,0,0,0,12.11,10.38s.41-1.75,1.14-4.53a4.49,4.49,0,0,1-2.48-3.2" transform="translate(-1.67 0)"/><path class="c5501c20-e977-4982-ba71-bb7c5c18e326" d="M106.28,65.6a43.87,43.87,0,0,1-3.47,5.27,4.47,4.47,0,0,1,0,4.13,35.44,35.44,0,0,1,2,3.79l.08.14a36,36,0,0,0,1.56-10.49c0-1,0-1.9-.12-2.84" transform="translate(-1.67 0)"/><path class="c5501c20-e977-4982-ba71-bb7c5c18e326" d="M100.63,77a4.45,4.45,0,0,1-3.28.13A51,51,0,0,1,75.56,90.31,64.61,64.61,0,0,1,61,92.82l0,.08c2.29,3.21,5.28,6.86,9.39,11.58A36,36,0,0,0,103.31,83l-.06-.17A35.88,35.88,0,0,0,100.63,77" transform="translate(-1.67 0)"/><path class="83649957-91f2-4982-a1ce-a82d94972059" d="M95.22,70.23a46.19,46.19,0,0,0-18.66-13.7,4.46,4.46,0,0,1-4.33,1.67c-.77,1.24-1.55,2.55-2.33,3.95A125.37,125.37,0,0,0,59.42,88.22a4.51,4.51,0,0,1,1.45,2A47.06,47.06,0,0,0,77.19,87,51,51,0,0,0,94.95,75.2a4.47,4.47,0,0,1,.28-5" transform="translate(-1.67 0)"/><path class="3f28d322-d63c-4f15-be87-d3c5869b1dd9" d="M91.09,39.67c-.14,0-6.45,2.15-14.18,11.87a4.47,4.47,0,0,1,.6,2.24c0,.08,0,.16,0,.23a56.43,56.43,0,0,1,5.19,2.37A48.08,48.08,0,0,1,97.57,68.6a4.55,4.55,0,0,1,1.24-.18,4.5,4.5,0,0,1,1.54.28c2.13-3,3.63-5.56,4.79-7.24a36,36,0,0,0-14.05-21.8" transform="translate(-1.67 0)"/><path class="5fc78719-9093-436a-b4c0-c76468aed04d" d="M46,47.56a25.64,25.64,0,0,1,1.13-6.78A36.24,36.24,0,0,0,38,51.91c1.59-.22,3.15-.42,4.7-.62A4.5,4.5,0,0,1,46,47.56" transform="translate(-1.67 0)"/><path class="5fc78719-9093-436a-b4c0-c76468aed04d" d="M48.47,72.06A85,85,0,0,1,46,56.24,4.5,4.5,0,0,1,43,53.71,53.76,53.76,0,0,0,36.93,55a36,36,0,0,0,2.39,31.7,65.51,65.51,0,0,0,13.39,2.83,4.51,4.51,0,0,1,1.87-1.81,70.72,70.72,0,0,1-6.1-15.69" transform="translate(-1.67 0)"/><path class="83649957-91f2-4982-a1ce-a82d94972059" d="M68.53,53.87l-.45-.08a86.73,86.73,0,0,0-16.54-.92,4.5,4.5,0,0,1-2.77,3.23,56.37,56.37,0,0,0,2.11,13.27C53.17,77.16,54.6,82,57.21,86.9a160.56,160.56,0,0,1,5.93-16.76A99.75,99.75,0,0,1,69.92,57a4.47,4.47,0,0,1-1.39-3.16" transform="translate(-1.67 0)"/><path class="22769a79-9b8f-4251-ba5f-f3626fbe3dc5" d="M69.85,32.73a35.84,35.84,0,0,0-19.58,5.79,59.48,59.48,0,0,0-1.36,9.25,4.51,4.51,0,0,1,2.48,2.65,64,64,0,0,1,17.77,1.05,4.48,4.48,0,0,1,5.7-1.8A59.67,59.67,0,0,1,88,37.65a35.86,35.86,0,0,0-18.18-4.92" transform="translate(-1.67 0)"/></svg>